#!OML:ASF F:\twosubjects\two\Thursday\Session 1\justin.ASF
:FULLY-SPECIFIED
:DEGREES
304
root 9.6035 17.1382 -19.9326 -7.80943 -82.8243 13.8619
lowerback -0.260155 0.325178 -2.26689
upperback -0.354443 0.429414 2.24152
thorax -0.251762 0.219643 3.57531
lowerneck -23.4379 8.01483 -2.35747
upperneck 20.4502 11.7906 0.562209
head 10.1899 5.27239 2.35919
rclavicle 1.89839e-014 1.03368e-014
rhumerus -39.1809 -31.1752 -60.0135
rradius 26.9565
rwrist -5.75263
rhand -16.9106 10.9264
rfingers 7.12502
rthumb 9.32159 -18.8475
lclavicle 1.89839e-014 1.03368e-014
lhumerus -35.077 10.8137 81.0953
lradius 30.4037
lwrist -10.6179
lhand 0.236226 41.6925
lfingers 7.12502
lthumb 25.8166 69.9606
rfemur -15.8493 -0.669608 23.5895
rtibia 42.3369
rfoot -31.079 -11.594
rtoes 3.2741
lfemur -15.3329 1.92833 -21.9274
ltibia 33.9754
lfoot -21.4961 -2.41526
ltoes -4.77621
305
root 9.58864 17.1617 -19.9357 -8.4201 -82.967 14.518
lowerback -0.495005 0.388882 -2.44352
upperback -0.415389 0.519165 2.19099
thorax -0.190847 0.265084 3.62438
lowerneck -22.6035 7.8904 -2.27703
upperneck 19.6589 11.6317 0.14618
head 9.79723 5.1942 2.11224
rclavicle -1.02871e-014 -5.56597e-015
rhumerus -39.4339 -31.3607 -60.2387
rradius 26.7722
rwrist -4.81722
rhand -16.8771 10.9751
rfingers 7.12502
rthumb 9.35398 -18.7973
lclavicle -1.02871e-014 -5.56597e-015
lhumerus -35.2844 10.3269 81.6876
lradius 30.2829
lwrist -9.71549
lhand -1.44806 41.6888
lfingers 7.12502
lthumb 24.2027 70.1816
rfemur -15.5515 -0.410464 23.5379
rtibia 41.7772
rfoot -30.9059 -11.7318
rtoes 3.44067
lfemur -15.0095 2.00058 -21.979
ltibia 33.3863
lfoot -21.4322 -2.11587
ltoes -6.32498
306
root 9.57855 17.1801 -19.9265 -8.48501 -83.0498 14.7463
lowerback -0.77464 0.376663 -2.52884
upperback -0.552257 0.506945 2.28123
thorax -0.17519 0.260442 3.76757
lowerneck -22.321 7.87655 -2.43317
upperneck 19.5728 11.6858 0.00180907
head 9.71703 5.19574 2.07763
rclavicle -8.59744e-015 -1.35174e-014
rhumerus -39.3745 -30.6773 -60.7161
rradius 26.5668
rwrist -4.54692
rhand -17.3066 10.9212
rfingers 7.12502
rthumb 8.93946 -18.8694
lclavicle -8.59744e-015 -1.35174e-014
lhumerus -35.5325 10.6363 82.0955
lradius 29.931
lwrist -9.63519
lhand -2.02843 40.8529
lfingers 7.12502
lthumb 23.6461 69.4187
rfemur -15.3957 -0.460297 23.4871
rtibia 41.1807
rfoot -30.4979 -11.7057
rtoes 2.69151
lfemur -14.8748 2.13112 -22.025
ltibia 32.9133
lfoot -21.3519 -2.24362
ltoes -5.97321
307
root 9.57242 17.1994 -19.9224 -7.09192 -83.0818 13.5269
lowerback -1.01215 0.41186 -2.39791
upperback -0.71681 0.555126 2.37712
thorax -0.214669 0.286381 3.79423
lowerneck -22.7459 7.87353 -3.00333
upperneck 20.3812 11.7694 0.631749
head 9.99713 5.23274 2.43862
rclavicle -1.35671e-014 1.03368e-014
rhumerus -39.4112 -30.1374 -61.1302
rradius 26.3292
rwrist -4.75845
rhand -17.8008 11.0248
rfingers 7.12502
rthumb 8.4626 -18.7857
lclavicle -1.35671e-014 1.03368e-014
lhumerus -35.7171 11.2846 82.2682
lradius 29.5388
lwrist -10.4873
lhand -1.29784 39.6302
lfingers 7.12502
lthumb 24.3467 68.1038
rfemur -15.2625 -0.46831 23.655
rtibia 40.5805
rfoot -30.1241 -11.8552
rtoes 1.6933
lfemur -14.8282 2.1919 -21.85
ltibia 32.5134
lfoot -21.1658 -2.57873
ltoes -4.68945
308
root 9.56527 17.2116 -19.9215 -5.14732 -83.1653 11.7677
lowerback -1.29957 0.495023 -2.10755
upperback -0.880503 0.666641 2.32681
thorax -0.226644 0.342671 3.58062
lowerneck -22.9737 7.8308 -3.23015
upperneck 20.8945 11.685 1.15985
head 10.1708 5.2214 2.67276
rclavicle 2.54444e-014 1.43125e-014
rhumerus -39.6935 -30.0608 -61.5735
rradius 26.1794
rwrist -4.81567
rhand -17.6098 11.1307
rfingers 7.12502
rthumb 8.64693 -18.6722
lclavicle 2.54444e-014 1.43125e-014
lhumerus -35.8097 11.1772 82.4855
lradius 29.2736
lwrist -10.7941
lhand -0.916479 39.2828
lfingers 7.12502
lthumb 24.7123 67.7068
rfemur -15.053 -0.192248 23.9238
rtibia 39.9718
rfoot -29.99 -12.089
rtoes 1.67001
lfemur -14.8591 2.27367 -21.567
ltibia 32.188
lfoot -21.0094 -2.94209
ltoes -3.58251
309
root 9.55123 17.2229 -19.9178 -6.311 -83.3229 13.1588
lowerback -1.71596 0.56514 -2.16218
upperback -0.98298 0.767324 2.13246
thorax -0.104226 0.392524 3.41575
lowerneck -23.0854 7.82635 -3.07258
upperneck 21.1278 11.5829 1.37583
head 10.2718 5.20499 2.72449
rclavicle 9.88954e-015 1.35174e-014
rhumerus -39.8814 -30.0808 -62.1035
rradius 26.0485
rwrist -4.46099
rhand -16.9376 11.1247
rfingers 7.12502
rthumb 9.29559 -18.6504
lclavicle 9.88954e-015 1.35174e-014
lhumerus -35.7976 10.7397 82.7579
lradius 29.0981
lwrist -10.62
lhand -0.430226 39.8125
lfingers 7.12502
lthumb 25.1782 68.1718
rfemur -14.9047 0.136785 23.7524
rtibia 39.4058
rfoot -29.8079 -12.0289
rtoes 2.40395
lfemur -14.9223 2.46328 -21.7232
ltibia 31.9028
lfoot -20.9223 -3.1291
ltoes -3.22142
310
root 9.53779 17.2416 -19.9206 -8.32233 -83.5047 15.3689
lowerback -2.02236 0.604619 -2.52646
upperback -1.1052 0.830871 2.05523
thorax -0.0672315 0.426738 3.54574
lowerneck -22.8842 7.96278 -2.57288
upperneck 21.1702 11.6743 1.0666
head 10.3027 5.246 2.54906
rclavicle -1.13804e-014 -2.3059e-014
rhumerus -39.8823 -29.6512 -62.7487
rradius 25.9263
rwrist -4.36874
rhand -16.6283 10.9909
rfingers 7.12502
rthumb 9.59396 -18.7706
lclavicle -1.13804e-014 -2.3059e-014
lhumerus -35.9544 10.7604 82.9695
lradius 29.0357
lwrist -10.9369
lhand 0.793594 40.0262
lfingers 7.12502
lthumb 26.3503 68.2155
rfemur -14.8966 0.465661 23.5449
rtibia 38.931
rfoot -29.2794 -12.3249
rtoes 1.41076
lfemur -14.901 2.5723 -21.9372
ltibia 31.6112
lfoot -20.8221 -3.25713
ltoes -2.32372
311
root 9.52979 17.2597 -19.9241 -8.63416 -83.654 15.8773
lowerback -2.24539 0.657009 -2.7259
upperback -1.27073 0.907069 2.0575
thorax -0.121893 0.468535 3.66398
lowerneck -22.47 8.15803 -1.71561
upperneck 21.0783 11.8774 0.136641
head 10.3154 5.29184 2.10859
rclavicle 5.46658e-015 6.36111e-015
rhumerus -39.9089 -29.2649 -63.3968
rradius 25.775
rwrist -4.60994
rhand -16.7077 10.7967
rfingers 7.12502
rthumb 9.51734 -18.9684
lclavicle 5.46658e-015 6.36111e-015
lhumerus -36.1869 10.9666 83.1855
lradius 29.0052
lwrist -11.5717
lhand 1.90954 40.0276
lfingers 7.12502
lthumb 27.4181 68.0525
rfemur -14.9141 0.793281 23.55
rtibia 38.5705
rfoot -29.1821 -12.3781
rtoes 0.731175
lfemur -14.8373 2.76316 -21.9278
ltibia 31.2975
lfoot -20.7484 -3.47318
ltoes -1.48915
312
root 9.52448 17.2715 -19.9227 -8.88607 -83.717 16.398
lowerback -2.58954 0.731157 -2.79093
upperback -1.3862 1.01284 2.01031
thorax -0.0570783 0.521526 3.65832
lowerneck -22.1912 7.86988 -2.13453
upperneck 20.5755 11.5317 0.352019
head 10.0473 5.15316 2.16188
rclavicle -4.42296e-015 -1.35174e-014
rhumerus -40.0032 -29.5973 -63.6769
rradius 25.4987
rwrist -4.05579
rhand -16.7948 10.8153
rfingers 7.12502
rthumb 9.43334 -18.9536
lclavicle -4.42296e-015 -1.35174e-014
lhumerus -36.1952 10.9656 83.5611
lradius 28.8343
lwrist -11.8228
lhand 1.86397 40.3791
lfingers 7.12502
lthumb 27.3745 68.4109
rfemur -14.9758 0.942359 23.4535
rtibia 38.3153
rfoot -29.6818 -11.6626
rtoes 2.86414
lfemur -14.9456 3.18916 -22.0063
ltibia 30.9784
lfoot -20.7377 -3.57416
ltoes -2.60274
313
root 9.52264 17.2799 -19.9247 -8.59484 -83.7057 16.3924
lowerback -2.79761 0.666112 -2.95051
upperback -1.5853 0.930429 2.10542
thorax -0.142953 0.484809 3.84669
lowerneck -22.3076 7.74557 -2.88413
upperneck 20.785 11.4805 0.911355
head 10.0576 5.13382 2.47049
rclavicle 1.18774e-014 2.38542e-015
rhumerus -40.0058 -29.4032 -63.9688
rradius 25.2569
rwrist -3.14049
rhand -16.9601 11.0003
rfingers 7.12502
rthumb 9.27382 -18.7758
lclavicle 1.18774e-014 2.38542e-015
lhumerus -36.3961 11.0601 84.0449
lradius 28.6395
lwrist -11.7183
lhand 0.889671 40.5343
lfingers 7.12502
lthumb 26.4422 68.7098
rfemur -15.173 0.904423 23.4301
rtibia 38.1019
rfoot -29.779 -11.2902
rtoes 4.66744
lfemur -15.1697 3.5534 -22.0238
ltibia 30.7122
lfoot -20.6877 -3.75586
ltoes -3.73509
